<svg xmlns="http://www.w3.org/2000/svg" width="130.21" height="100" viewBox="0 0 130.21 100">
  <g id="Group_186" data-name="Group 186" transform="translate(-1292.292 -323.732)">
    <g id="Group_184" data-name="Group 184" transform="translate(1292.292 323.732)">
      <path id="Path_233" data-name="Path 233" d="M1442.134,473.446a2.786,2.786,0,0,0,2.786,2.785h6.586a2.786,2.786,0,0,0,2.786-2.786l0-11.326a11.289,11.289,0,0,0-12.425-11.395l-.02-4.73a2.787,2.787,0,0,0-2.786-2.775h-6.585a2.786,2.786,0,0,0-2.786,2.788l0,6.859a11.545,11.545,0,0,0-7.516-2.474,11.354,11.354,0,0,0-8.057,3.071c-.122.123-.231.254-.345.383a2.782,2.782,0,0,0-1.117-1.063,21.225,21.225,0,0,0-9.143-2.507q-.3-.01-.591-.01a13.56,13.56,0,0,0-10.591,4.512,16.186,16.186,0,0,0-15.916-11.677h-9.537a2.786,2.786,0,0,0-2.786,2.786l0,27.556a2.786,2.786,0,0,0,2.786,2.786h9.408c6.949,0,10.985-3.07,13.146-5.646a15.321,15.321,0,0,0,1.086-1.465c1.734,4.447,5.372,7.189,9.847,7.189a9.384,9.384,0,0,0,3.406-.639,2.782,2.782,0,0,0,1.677.561h5.919a2.776,2.776,0,0,0,2.653-1.978,12.318,12.318,0,0,0,7.559,2.331,12.544,12.544,0,0,0,8.153-2.866,2.777,2.777,0,0,0,2.759,2.514h6.586a2.784,2.784,0,0,0,2.786-2.79Zm-62.678-10.13a3.849,3.849,0,0,1-2.849,1.335l0-9.99c3.017.35,3.744,3.585,3.862,4.255A5.5,5.5,0,0,1,1379.455,463.316Z" transform="translate(-1324.083 -376.584)" fill="#fff" fill-rule="evenodd"/>
      <path id="Path_234" data-name="Path 234" d="M1329.626,401.3c1.448-4.092,2.934-8.3,3.073-12.477h.562a4.22,4.22,0,0,0,3.571-6.465l-1.7-2.946a28.277,28.277,0,1,0-14.274-.1l-1.826,3.166a4.209,4.209,0,0,0,1.532,5.773,4.223,4.223,0,0,0,2.1.567h1.586c-.172,2.863-1.39,6.31-2.579,9.668-2.331,6.6-4.922,13.945-1.351,20.362l-9.225-13.032,8.91-10.9a2.786,2.786,0,0,0-2.157-4.55h-8.114a2.785,2.785,0,0,0-2.213,1.094l-2.718,3.555,0-1.869a2.786,2.786,0,0,0-2.786-2.78h-6.938a2.786,2.786,0,0,0-2.786,2.788l.017,27.438a2.786,2.786,0,0,0,2.786,2.785h6.938a2.785,2.785,0,0,0,2.786-2.79l0-2.621,3.024,4.242a2.784,2.784,0,0,0,2.269,1.169h8.036a2.778,2.778,0,0,0,2.54-3.915,15.6,15.6,0,0,0,2.085,2.635,4.214,4.214,0,1,0,6.042-5.877C1325.757,413.1,1327.081,408.5,1329.626,401.3Z" transform="translate(-1292.292 -323.732)" fill="#fff" fill-rule="evenodd"/>
    </g>
    <g id="Group_185" data-name="Group 185" transform="translate(1295.079 326.518)">
      <path id="Path_235" data-name="Path 235" d="M1297.293,448.314h6.938l.026,10.818,1.612-2.861,6.084-7.957h8.114l-10.253,12.544,10.544,14.895h-8.035l-7.292-10.23-.8.823.013,9.407h-6.939Z" transform="translate(-1297.293 -381.677)" fill="#580072"/>
      <path id="Path_236" data-name="Path 236" d="M1392.343,459.666c1.348,7.643-3.255,15.992-13.839,15.992H1369.1l0-27.556h9.368C1386.645,448.024,1391.286,453.668,1392.343,459.666Zm-6.922.98c-.573-3.254-2.9-6.467-6.923-6.584h-2.47l.007,15.6h2.43C1383.875,469.661,1386.161,464.839,1385.42,460.645Z" transform="translate(-1329.084 -381.583)" fill="#a400c9"/>
      <path id="Path_237" data-name="Path 237" d="M1425.761,460.968a18.447,18.447,0,0,1,7.952,2.2l-.008,18.187h-5.918l-.4-2.038a5.9,5.9,0,0,1-4.684,2.116c-4.39,0-7.161-3.488-7.928-7.839C1413.34,465.437,1418.782,460.733,1425.761,460.968Zm1.371,6a6.055,6.055,0,0,0-2.342-.392c-2.3.078-3.579,2.156-3.6,5.135-.046,2.626,1.316,4.351,3.668,4.351a2.763,2.763,0,0,0,2.266-1.372Z" transform="translate(-1349.207 -387.276)" fill="#a400c9"/>
      <path id="Path_238" data-name="Path 238" d="M1468.943,474.2c1,5.683-4.343,7.6-7.949,7.6a9.161,9.161,0,0,1-7.883-3.8l2.9-3.763a7.181,7.181,0,0,0,4.567,2.117c1.215,0,1.819-.353,1.873-.941.028-.509-.408-.98-1.573-1.137-3.362-.392-7.035-2.548-7.047-6.624-.022-4.351,3.916-6.468,7.757-6.468a8.628,8.628,0,0,1,6.717,2.744l-3.015,3.8a6.066,6.066,0,0,0-3.546-1.215c-.9,0-1.485.47-1.52.941-.027.51.526.98,1.487,1.1C1464.77,468.986,1468.3,470.554,1468.943,474.2Z" transform="translate(-1366.282 -387.377)" fill="#a400c9"/>
      <path id="Path_239" data-name="Path 239" d="M1493.395,448.314l.035,8.427a8.459,8.459,0,0,1,12.409,7.683l0,11.328h-6.586l-.006-11.367a3.2,3.2,0,0,0-3.246-3.293,5.59,5.59,0,0,0-2.608.549l.019,14.111h-6.585l-.017-27.438Z" transform="translate(-1381.202 -381.677)" fill="#a400c9"/>
      <path id="Path_240" data-name="Path 240" d="M1361.907,354.213a25.485,25.485,0,0,1-22.921,25.356l3.723,6.447a1.455,1.455,0,0,1,.242.8,1.43,1.43,0,0,1-1.431,1.432h-3.5c.7,4.523-1.029,9.43-2.763,14.334-2.335,6.607-4.67,13.21-.182,17.8a1.428,1.428,0,1,1-2.05,1.989c-5.725-5.858-3.1-13.3-.467-20.742,1.674-4.73,3.343-9.461,2.56-13.383h-4.194a1.43,1.43,0,0,1-1.233-2.145l3.793-6.577a25.482,25.482,0,1,1,28.421-25.313Z" transform="translate(-1303.337 -328.732)" fill="#a400c9" fill-rule="evenodd"/>
    </g>
  </g>
</svg>
